<svg width="65" height="80" viewBox="0 0 65 80" fill="none" xmlns="http://www.w3.org/2000/svg">
<path d="M7.02763 65.0223H26.1572C27.1275 65.0223 27.9141 65.8089 27.9141 66.7792V75.142C27.9141 76.7788 29.9553 77.5263 31.0124 76.2767L40.0065 65.6445C40.3403 65.2499 40.831 65.0223 41.3478 65.0223H57.9779C61.8591 65.0223 65.0055 61.8759 65.0055 57.9947V7.02762C65.0055 3.14637 61.8591 0 57.9779 0H7.02762C3.14637 0 0 3.14638 0 7.02763V57.9947C0 61.876 3.14638 65.0223 7.02763 65.0223Z" fill="url(#paint0_linear_48_6)"/>
<path d="M35.2925 44.8642L41.5797 18.5106C41.9571 16.9285 43.3711 15.8122 44.9976 15.8122H50.0718L42.2235 49.1934H38.7104C36.44 49.1934 34.7656 47.0725 35.2925 44.8642Z" fill="#FFFEFE" stroke="#FFFEFE" stroke-width="0.237569"/>
<path d="M28.9899 15.8122H23.9157C22.2891 15.8122 20.8752 16.9285 20.4978 18.5106L14.2106 44.8642C13.6837 47.0725 15.3581 49.1934 17.6284 49.1934H21.1415L28.9899 15.8122Z" fill="#FFFEFE" stroke="#FFFEFE" stroke-width="0.237569"/>
<path d="M23.1387 29.734C26.019 33.3436 33.702 38.8071 41.3915 31.785" stroke="#FFFEFE" stroke-width="5.27072"/>
<defs>
<linearGradient id="paint0_linear_48_6" x1="32.5028" y1="0" x2="32.5028" y2="79.9392" gradientUnits="userSpaceOnUse">
<stop stop-color="#0350C6"/>
<stop offset="1" stop-color="#012760"/>
</linearGradient>
</defs>
</svg>
