<svg width="58" height="58" viewBox="0 0 58 58" fill="none" xmlns="http://www.w3.org/2000/svg">
<circle cx="29" cy="29" r="29" fill="url(#paint0_linear_78_73)"/>
<path d="M23.0412 36.6975C22.8714 36.8673 22.6411 36.9627 22.401 36.9627C22.1609 36.9627 21.9306 36.8673 21.7608 36.6975C21.5911 36.5277 21.4957 36.2974 21.4957 36.0573C21.4957 35.8172 21.5911 35.5869 21.7608 35.4172L29.6562 27.5218L25.1751 23.0407C25.0486 22.914 24.9626 22.7528 24.9278 22.5772C24.8929 22.4017 24.9109 22.2198 24.9794 22.0545C25.0479 21.8892 25.1639 21.7479 25.3126 21.6484C25.4614 21.549 25.6363 21.4959 25.8152 21.4957L36.0578 21.4957C36.2977 21.4959 36.5278 21.5913 36.6974 21.7609C36.8671 21.9306 36.9624 22.1606 36.9626 22.4005L36.9626 32.6431C36.9625 32.8221 36.9093 32.997 36.8099 33.1457C36.7104 33.2945 36.5691 33.4104 36.4038 33.4789C36.2385 33.5474 36.0566 33.5654 35.8811 33.5306C35.7056 33.4958 35.5443 33.4097 35.4177 33.2833L30.9365 28.8021L23.0412 36.6975Z" fill="#FFFEFE"/>
<defs>
<linearGradient id="paint0_linear_78_73" x1="0" y1="29" x2="58" y2="29" gradientUnits="userSpaceOnUse">
<stop stop-color="#FB9D05"/>
<stop offset="1" stop-color="#EA4335"/>
</linearGradient>
</defs>
</svg>
