<svg width="1928" height="707" viewBox="0 0 1928 707" fill="none" xmlns="http://www.w3.org/2000/svg">
<g clip-path="url(#clip0_163_265)" filter="url(#filter0_d_163_265)">
<rect width="1920" height="699" transform="translate(4)" fill="#97C0FF" fill-opacity="0.14"/>
<line x1="324.5" y1="1.99371e-08" x2="324.5" y2="328" stroke="url(#paint0_linear_163_265)" stroke-opacity="0.5"/>
<line x1="375.5" y1="1.99371e-08" x2="375.5" y2="328" stroke="url(#paint1_linear_163_265)" stroke-opacity="0.5"/>
<line x1="426.5" y1="1.99371e-08" x2="426.5" y2="328" stroke="url(#paint2_linear_163_265)" stroke-opacity="0.5"/>
<line x1="477.5" y1="1.99371e-08" x2="477.5" y2="328" stroke="url(#paint3_linear_163_265)" stroke-opacity="0.5"/>
<line x1="528.5" y1="1.99371e-08" x2="528.5" y2="328" stroke="url(#paint4_linear_163_265)" stroke-opacity="0.5"/>
<line x1="579.5" y1="1.99371e-08" x2="579.5" y2="328" stroke="url(#paint5_linear_163_265)" stroke-opacity="0.5"/>
<line x1="630.5" y1="1.99371e-08" x2="630.5" y2="328" stroke="url(#paint6_linear_163_265)" stroke-opacity="0.5"/>
<line x1="681.5" y1="1.99371e-08" x2="681.5" y2="328" stroke="url(#paint7_linear_163_265)" stroke-opacity="0.5"/>
<line x1="732.5" y1="1.99371e-08" x2="732.5" y2="328" stroke="url(#paint8_linear_163_265)" stroke-opacity="0.5"/>
<line x1="834.5" y1="1.99371e-08" x2="834.5" y2="328" stroke="url(#paint9_linear_163_265)" stroke-opacity="0.5"/>
<line x1="1942.5" y1="37.5" x2="321.5" y2="37.5" stroke="url(#paint10_linear_163_265)" stroke-opacity="0.5"/>
<line x1="885.5" y1="1.99371e-08" x2="885.5" y2="328" stroke="url(#paint11_linear_163_265)" stroke-opacity="0.5"/>
<line x1="1942.5" y1="87.5" x2="321.5" y2="87.5" stroke="url(#paint12_linear_163_265)" stroke-opacity="0.5"/>
<line x1="936.5" y1="1.99371e-08" x2="936.5" y2="328" stroke="url(#paint13_linear_163_265)" stroke-opacity="0.5"/>
<line x1="1942.5" y1="138.5" x2="321.5" y2="138.5" stroke="url(#paint14_linear_163_265)" stroke-opacity="0.5"/>
<line x1="987.5" y1="1.99371e-08" x2="987.5" y2="328" stroke="url(#paint15_linear_163_265)" stroke-opacity="0.5"/>
<line x1="1942.5" y1="189.5" x2="321.5" y2="189.5" stroke="url(#paint16_linear_163_265)" stroke-opacity="0.5"/>
<line x1="1038.5" y1="1.99371e-08" x2="1038.5" y2="328" stroke="url(#paint17_linear_163_265)" stroke-opacity="0.5"/>
<line x1="1942.5" y1="241.5" x2="321.5" y2="241.5" stroke="url(#paint18_linear_163_265)" stroke-opacity="0.5"/>
<line x1="1089.5" y1="1.99371e-08" x2="1089.5" y2="328" stroke="url(#paint19_linear_163_265)" stroke-opacity="0.5"/>
<line x1="1942.5" y1="292.5" x2="321.5" y2="292.5" stroke="url(#paint20_linear_163_265)" stroke-opacity="0.5"/>
<line x1="1140.5" y1="1.99371e-08" x2="1140.5" y2="328" stroke="url(#paint21_linear_163_265)" stroke-opacity="0.5"/>
<line x1="1604.5" y1="343.5" x2="1410.5" y2="343.5" stroke="url(#paint22_linear_163_265)" stroke-opacity="0.5"/>
<line x1="1191.5" y1="1.99371e-08" x2="1191.5" y2="328" stroke="url(#paint23_linear_163_265)" stroke-opacity="0.5"/>
<line x1="1604.5" y1="394.5" x2="1410.5" y2="394.5" stroke="url(#paint24_linear_163_265)" stroke-opacity="0.5"/>
<line x1="1242.5" y1="1.99371e-08" x2="1242.5" y2="328" stroke="url(#paint25_linear_163_265)" stroke-opacity="0.5"/>
<line x1="1344.5" y1="1.99371e-08" x2="1344.5" y2="328" stroke="url(#paint26_linear_163_265)" stroke-opacity="0.5"/>
<line x1="1395.5" y1="1.99371e-08" x2="1395.5" y2="328" stroke="url(#paint27_linear_163_265)" stroke-opacity="0.5"/>
<line x1="1604.5" y1="598.5" x2="321.5" y2="598.5" stroke="url(#paint28_linear_163_265)" stroke-opacity="0.5"/>
<line x1="1446.5" y1="1.99371e-08" x2="1446.5" y2="328" stroke="url(#paint29_linear_163_265)" stroke-opacity="0.5"/>
<line x1="1497.5" y1="1.99371e-08" x2="1497.5" y2="328" stroke="url(#paint30_linear_163_265)" stroke-opacity="0.5"/>
<line x1="1548.5" y1="1.99371e-08" x2="1548.5" y2="328" stroke="url(#paint31_linear_163_265)" stroke-opacity="0.5"/>
<line x1="1599.5" y1="1.99371e-08" x2="1599.5" y2="328" stroke="url(#paint32_linear_163_265)" stroke-opacity="0.5"/>
<line x1="1649.5" y1="1.99371e-08" x2="1649.5" y2="328" stroke="url(#paint33_linear_163_265)" stroke-opacity="0.5"/>
<line x1="1698.5" y1="1.99371e-08" x2="1698.5" y2="328" stroke="url(#paint34_linear_163_265)" stroke-opacity="0.5"/>
<line x1="1747.5" y1="1.99371e-08" x2="1747.5" y2="328" stroke="url(#paint35_linear_163_265)" stroke-opacity="0.5"/>
<line x1="1796.5" y1="1.99371e-08" x2="1796.5" y2="328" stroke="url(#paint36_linear_163_265)" stroke-opacity="0.5"/>
<line x1="1845.5" y1="1.99371e-08" x2="1845.5" y2="328" stroke="url(#paint37_linear_163_265)" stroke-opacity="0.5"/>
<line x1="1894.5" y1="1.99371e-08" x2="1894.5" y2="328" stroke="url(#paint38_linear_163_265)" stroke-opacity="0.5"/>
<line x1="783.5" y1="1.99371e-08" x2="783.5" y2="328" stroke="url(#paint39_linear_163_265)" stroke-opacity="0.5"/>
<line x1="1293.5" y1="1.99371e-08" x2="1293.5" y2="328" stroke="url(#paint40_linear_163_265)" stroke-opacity="0.5"/>
</g>
<defs>
<filter id="filter0_d_163_265" x="0" y="0" width="1928" height="707" filterUnits="userSpaceOnUse" color-interpolation-filters="sRGB">
<feFlood flood-opacity="0" result="BackgroundImageFix"/>
<feColorMatrix in="SourceAlpha" type="matrix" values="0 0 0 0 0 0 0 0 0 0 0 0 0 0 0 0 0 0 127 0" result="hardAlpha"/>
<feOffset dy="4"/>
<feGaussianBlur stdDeviation="2"/>
<feComposite in2="hardAlpha" operator="out"/>
<feColorMatrix type="matrix" values="0 0 0 0 0 0 0 0 0 0 0 0 0 0 0 0 0 0 0.25 0"/>
<feBlend mode="normal" in2="BackgroundImageFix" result="effect1_dropShadow_163_265"/>
<feBlend mode="normal" in="SourceGraphic" in2="effect1_dropShadow_163_265" result="shape"/>
</filter>
<linearGradient id="paint0_linear_163_265" x1="323.5" y1="-1.99371e-08" x2="323.5" y2="328" gradientUnits="userSpaceOnUse">
<stop stop-color="#747474" stop-opacity="0.3"/>
<stop offset="1" stop-color="#DADADA" stop-opacity="0"/>
</linearGradient>
<linearGradient id="paint1_linear_163_265" x1="374.5" y1="-1.99371e-08" x2="374.5" y2="328" gradientUnits="userSpaceOnUse">
<stop stop-color="#747474" stop-opacity="0.3"/>
<stop offset="1" stop-color="#DADADA" stop-opacity="0"/>
</linearGradient>
<linearGradient id="paint2_linear_163_265" x1="425.5" y1="-1.99371e-08" x2="425.5" y2="328" gradientUnits="userSpaceOnUse">
<stop stop-color="#747474" stop-opacity="0.3"/>
<stop offset="1" stop-color="#DADADA" stop-opacity="0"/>
</linearGradient>
<linearGradient id="paint3_linear_163_265" x1="476.5" y1="-1.99371e-08" x2="476.5" y2="328" gradientUnits="userSpaceOnUse">
<stop stop-color="#747474" stop-opacity="0.3"/>
<stop offset="1" stop-color="#DADADA" stop-opacity="0"/>
</linearGradient>
<linearGradient id="paint4_linear_163_265" x1="527.5" y1="-1.99371e-08" x2="527.5" y2="328" gradientUnits="userSpaceOnUse">
<stop stop-color="#747474" stop-opacity="0.3"/>
<stop offset="1" stop-color="#DADADA" stop-opacity="0"/>
</linearGradient>
<linearGradient id="paint5_linear_163_265" x1="578.5" y1="-1.99371e-08" x2="578.5" y2="328" gradientUnits="userSpaceOnUse">
<stop stop-color="#747474" stop-opacity="0.3"/>
<stop offset="1" stop-color="#DADADA" stop-opacity="0"/>
</linearGradient>
<linearGradient id="paint6_linear_163_265" x1="629.5" y1="-1.99371e-08" x2="629.5" y2="328" gradientUnits="userSpaceOnUse">
<stop stop-color="#747474" stop-opacity="0.3"/>
<stop offset="1" stop-color="#DADADA" stop-opacity="0"/>
</linearGradient>
<linearGradient id="paint7_linear_163_265" x1="680.5" y1="-1.99371e-08" x2="680.5" y2="328" gradientUnits="userSpaceOnUse">
<stop stop-color="#747474" stop-opacity="0.3"/>
<stop offset="1" stop-color="#DADADA" stop-opacity="0"/>
</linearGradient>
<linearGradient id="paint8_linear_163_265" x1="731.5" y1="-1.99371e-08" x2="731.5" y2="328" gradientUnits="userSpaceOnUse">
<stop stop-color="#747474" stop-opacity="0.3"/>
<stop offset="1" stop-color="#DADADA" stop-opacity="0"/>
</linearGradient>
<linearGradient id="paint9_linear_163_265" x1="833.5" y1="-1.99371e-08" x2="833.5" y2="328" gradientUnits="userSpaceOnUse">
<stop stop-color="#747474" stop-opacity="0.3"/>
<stop offset="1" stop-color="#DADADA" stop-opacity="0"/>
</linearGradient>
<linearGradient id="paint10_linear_163_265" x1="1942.5" y1="36.5" x2="321.5" y2="36.4993" gradientUnits="userSpaceOnUse">
<stop stop-color="#747474" stop-opacity="0.3"/>
<stop offset="1" stop-color="#DADADA" stop-opacity="0"/>
</linearGradient>
<linearGradient id="paint11_linear_163_265" x1="884.5" y1="-1.99371e-08" x2="884.5" y2="328" gradientUnits="userSpaceOnUse">
<stop stop-color="#747474" stop-opacity="0.3"/>
<stop offset="1" stop-color="#DADADA" stop-opacity="0"/>
</linearGradient>
<linearGradient id="paint12_linear_163_265" x1="1942.5" y1="86.5" x2="321.5" y2="86.4993" gradientUnits="userSpaceOnUse">
<stop stop-color="#747474" stop-opacity="0.3"/>
<stop offset="1" stop-color="#DADADA" stop-opacity="0"/>
</linearGradient>
<linearGradient id="paint13_linear_163_265" x1="935.5" y1="-1.99371e-08" x2="935.5" y2="328" gradientUnits="userSpaceOnUse">
<stop stop-color="#747474" stop-opacity="0.3"/>
<stop offset="1" stop-color="#DADADA" stop-opacity="0"/>
</linearGradient>
<linearGradient id="paint14_linear_163_265" x1="1942.5" y1="137.5" x2="321.5" y2="137.499" gradientUnits="userSpaceOnUse">
<stop stop-color="#747474" stop-opacity="0.3"/>
<stop offset="1" stop-color="#DADADA" stop-opacity="0"/>
</linearGradient>
<linearGradient id="paint15_linear_163_265" x1="986.5" y1="-1.99371e-08" x2="986.5" y2="328" gradientUnits="userSpaceOnUse">
<stop stop-color="#747474" stop-opacity="0.3"/>
<stop offset="1" stop-color="#DADADA" stop-opacity="0"/>
</linearGradient>
<linearGradient id="paint16_linear_163_265" x1="1942.5" y1="188.5" x2="321.5" y2="188.499" gradientUnits="userSpaceOnUse">
<stop stop-color="#747474" stop-opacity="0.3"/>
<stop offset="1" stop-color="#DADADA" stop-opacity="0"/>
</linearGradient>
<linearGradient id="paint17_linear_163_265" x1="1037.5" y1="-1.99371e-08" x2="1037.5" y2="328" gradientUnits="userSpaceOnUse">
<stop stop-color="#747474" stop-opacity="0.3"/>
<stop offset="1" stop-color="#DADADA" stop-opacity="0"/>
</linearGradient>
<linearGradient id="paint18_linear_163_265" x1="1942.5" y1="240.5" x2="321.5" y2="240.499" gradientUnits="userSpaceOnUse">
<stop stop-color="#747474" stop-opacity="0.3"/>
<stop offset="1" stop-color="#DADADA" stop-opacity="0"/>
</linearGradient>
<linearGradient id="paint19_linear_163_265" x1="1088.5" y1="-1.99371e-08" x2="1088.5" y2="328" gradientUnits="userSpaceOnUse">
<stop stop-color="#747474" stop-opacity="0.3"/>
<stop offset="1" stop-color="#DADADA" stop-opacity="0"/>
</linearGradient>
<linearGradient id="paint20_linear_163_265" x1="1942.5" y1="291.5" x2="321.5" y2="291.499" gradientUnits="userSpaceOnUse">
<stop stop-color="#747474" stop-opacity="0.3"/>
<stop offset="1" stop-color="#DADADA" stop-opacity="0"/>
</linearGradient>
<linearGradient id="paint21_linear_163_265" x1="1139.5" y1="-1.99371e-08" x2="1139.5" y2="328" gradientUnits="userSpaceOnUse">
<stop stop-color="#747474" stop-opacity="0.3"/>
<stop offset="1" stop-color="#DADADA" stop-opacity="0"/>
</linearGradient>
<linearGradient id="paint22_linear_163_265" x1="1604.5" y1="342.5" x2="1410.5" y2="342.5" gradientUnits="userSpaceOnUse">
<stop stop-color="#747474" stop-opacity="0.3"/>
<stop offset="1" stop-color="#DADADA" stop-opacity="0"/>
</linearGradient>
<linearGradient id="paint23_linear_163_265" x1="1190.5" y1="-1.99371e-08" x2="1190.5" y2="328" gradientUnits="userSpaceOnUse">
<stop stop-color="#747474" stop-opacity="0.3"/>
<stop offset="1" stop-color="#DADADA" stop-opacity="0"/>
</linearGradient>
<linearGradient id="paint24_linear_163_265" x1="1604.5" y1="393.5" x2="1410.5" y2="393.5" gradientUnits="userSpaceOnUse">
<stop stop-color="#747474" stop-opacity="0.3"/>
<stop offset="1" stop-color="#DADADA" stop-opacity="0"/>
</linearGradient>
<linearGradient id="paint25_linear_163_265" x1="1241.5" y1="-1.99371e-08" x2="1241.5" y2="328" gradientUnits="userSpaceOnUse">
<stop stop-color="#747474" stop-opacity="0.3"/>
<stop offset="1" stop-color="#DADADA" stop-opacity="0"/>
</linearGradient>
<linearGradient id="paint26_linear_163_265" x1="1343.5" y1="-1.99371e-08" x2="1343.5" y2="328" gradientUnits="userSpaceOnUse">
<stop stop-color="#747474" stop-opacity="0.3"/>
<stop offset="1" stop-color="#DADADA" stop-opacity="0"/>
</linearGradient>
<linearGradient id="paint27_linear_163_265" x1="1394.5" y1="-1.99371e-08" x2="1394.5" y2="328" gradientUnits="userSpaceOnUse">
<stop stop-color="#747474" stop-opacity="0.3"/>
<stop offset="1" stop-color="#DADADA" stop-opacity="0"/>
</linearGradient>
<linearGradient id="paint28_linear_163_265" x1="1604.5" y1="597.5" x2="321.5" y2="597.5" gradientUnits="userSpaceOnUse">
<stop stop-color="#747474" stop-opacity="0.3"/>
<stop offset="1" stop-color="#DADADA" stop-opacity="0"/>
</linearGradient>
<linearGradient id="paint29_linear_163_265" x1="1445.5" y1="-1.99371e-08" x2="1445.5" y2="328" gradientUnits="userSpaceOnUse">
<stop stop-color="#747474" stop-opacity="0.3"/>
<stop offset="1" stop-color="#DADADA" stop-opacity="0"/>
</linearGradient>
<linearGradient id="paint30_linear_163_265" x1="1496.5" y1="-1.99371e-08" x2="1496.5" y2="328" gradientUnits="userSpaceOnUse">
<stop stop-color="#747474" stop-opacity="0.3"/>
<stop offset="1" stop-color="#DADADA" stop-opacity="0"/>
</linearGradient>
<linearGradient id="paint31_linear_163_265" x1="1547.5" y1="-1.99371e-08" x2="1547.5" y2="328" gradientUnits="userSpaceOnUse">
<stop stop-color="#747474" stop-opacity="0.3"/>
<stop offset="1" stop-color="#DADADA" stop-opacity="0"/>
</linearGradient>
<linearGradient id="paint32_linear_163_265" x1="1598.5" y1="-1.99371e-08" x2="1598.5" y2="328" gradientUnits="userSpaceOnUse">
<stop stop-color="#747474" stop-opacity="0.3"/>
<stop offset="1" stop-color="#DADADA" stop-opacity="0"/>
</linearGradient>
<linearGradient id="paint33_linear_163_265" x1="1648.5" y1="-1.99371e-08" x2="1648.5" y2="328" gradientUnits="userSpaceOnUse">
<stop stop-color="#747474" stop-opacity="0.3"/>
<stop offset="1" stop-color="#DADADA" stop-opacity="0"/>
</linearGradient>
<linearGradient id="paint34_linear_163_265" x1="1697.5" y1="-1.99371e-08" x2="1697.5" y2="328" gradientUnits="userSpaceOnUse">
<stop stop-color="#747474" stop-opacity="0.3"/>
<stop offset="1" stop-color="#DADADA" stop-opacity="0"/>
</linearGradient>
<linearGradient id="paint35_linear_163_265" x1="1746.5" y1="-1.99371e-08" x2="1746.5" y2="328" gradientUnits="userSpaceOnUse">
<stop stop-color="#747474" stop-opacity="0.3"/>
<stop offset="1" stop-color="#DADADA" stop-opacity="0"/>
</linearGradient>
<linearGradient id="paint36_linear_163_265" x1="1795.5" y1="-1.99371e-08" x2="1795.5" y2="328" gradientUnits="userSpaceOnUse">
<stop stop-color="#747474" stop-opacity="0.3"/>
<stop offset="1" stop-color="#DADADA" stop-opacity="0"/>
</linearGradient>
<linearGradient id="paint37_linear_163_265" x1="1844.5" y1="-1.99371e-08" x2="1844.5" y2="328" gradientUnits="userSpaceOnUse">
<stop stop-color="#747474" stop-opacity="0.3"/>
<stop offset="1" stop-color="#DADADA" stop-opacity="0"/>
</linearGradient>
<linearGradient id="paint38_linear_163_265" x1="1893.5" y1="-1.99371e-08" x2="1893.5" y2="328" gradientUnits="userSpaceOnUse">
<stop stop-color="#747474" stop-opacity="0.3"/>
<stop offset="1" stop-color="#DADADA" stop-opacity="0"/>
</linearGradient>
<linearGradient id="paint39_linear_163_265" x1="782.5" y1="-1.99371e-08" x2="782.5" y2="328" gradientUnits="userSpaceOnUse">
<stop stop-color="#747474" stop-opacity="0.3"/>
<stop offset="1" stop-color="#DADADA" stop-opacity="0"/>
</linearGradient>
<linearGradient id="paint40_linear_163_265" x1="1292.5" y1="-1.99371e-08" x2="1292.5" y2="328" gradientUnits="userSpaceOnUse">
<stop stop-color="#747474" stop-opacity="0.3"/>
<stop offset="1" stop-color="#DADADA" stop-opacity="0"/>
</linearGradient>
<clipPath id="clip0_163_265">
<rect width="1920" height="699" fill="white" transform="translate(4)"/>
</clipPath>
</defs>
</svg>
