<svg xmlns="http://www.w3.org/2000/svg" xml:space="preserve" width="1500" height="1500" data-id="lg_cx7SZSPU2WJgVdg3r1" data-version="1" viewBox="0 0 1500 1500"><path fill="#354ead" stroke="transparent" d="M0 0h1500v1500H0z"/><g data-padding="20"><g transform="translate(-695.313 -711.03)scale(1.87683)"><path fill="none" stroke="#fff9ef" stroke-width="5" d="M485.802 413.324a50 50 0 1 0 0 100 50 50 0 1 0 0-100Z" paint-order="stroke" transform="matrix(.8 0 0 .82 203.97 398.53)" vector-effect="non-scaling-stroke"/><rect width="25.635" height="54.432" x="602.991" y="234.265" fill="#354ead" rx="0" ry="0" transform="matrix(.75 .29 -.28 .77 237.594 411.47)" vector-effect="non-scaling-stroke"/><path fill="#fff9ef" d="M622.428 797.265a2.993 3.068 0 1 0 0 6.136 2.993 3.068 0 1 0 0-6.136m5.984-14.76a2.993 3.068 0 1 0 0 6.136 2.993 3.068 0 1 0 0-6.136" vector-effect="non-scaling-stroke"/><rect width="368.793" height="91.53" x="204.246" y="334.16" fill="none" rx="0" ry="0" transform="translate(453.13 400)"/><path fill="#fff9ef" d="M668.392 788.515q-1.62 0-2.68-1.09-1.05-1.09-1.05-2.71v-38.88q0-1.71 1.05-2.72 1.06-1.01 2.68-1.01 1.7 0 2.71 1.01t1.01 2.72v38.88q0 1.62-1.01 2.71t-2.71 1.09m33.94 16.93q-1.63 0-2.72-1.09-1.09-1.1-1.09-2.63v-20.42q0-4.78-1.78-7.81-1.79-3.04-4.78-4.54-3-1.5-6.89-1.5-3.64 0-6.56 1.46-2.91 1.46-4.66 3.89-1.74 2.43-1.74 5.59h-4.86q.08-5.11 2.59-9.12 2.52-4 6.81-6.31t9.64-2.31q5.67 0 10.12 2.39 4.46 2.39 7.05 7 2.59 4.62 2.59 11.26v20.42q0 1.53-1.09 2.63-1.1 1.09-2.63 1.09m-33.94 0q-1.62 0-2.68-1.05-1.05-1.05-1.05-2.67v-36.94q0-1.7 1.05-2.71 1.06-1.02 2.68-1.02 1.7 0 2.71 1.02 1.01 1.01 1.01 2.71v36.94q0 1.62-1.01 2.67t-2.71 1.05m56.21-.07q-1.7 0-2.75-1.05-1.06-1.06-1.06-2.68v-36.85q0-1.7 1.06-2.71 1.05-1.02 2.75-1.02 1.62 0 2.67 1.02 1.06 1.01 1.06 2.71v36.85q0 1.62-1.06 2.68-1.05 1.05-2.67 1.05m-.08-52q-2.03 0-3.48-1.46-1.46-1.46-1.46-3.56 0-2.11 1.5-3.53 1.5-1.41 3.52-1.41 1.94 0 3.44 1.41 1.5 1.42 1.5 3.53 0 2.1-1.46 3.56-1.45 1.46-3.56 1.46m26.73 24.45h-3.97q.16-4.94 2.55-8.83t6.36-6.15q3.97-2.27 8.75-2.27 4.45 0 6.68 1.37 2.23 1.38 1.66 3.49-.24 1.21-.97 1.74t-1.7.57-2.11-.13q-4.94-.81-8.83.25-3.88 1.05-6.15 3.64t-2.27 6.32m-3.73 27.54q-1.7 0-2.67-.93t-.97-2.71v-37.02q0-1.7.97-2.67.97-.98 2.67-.98 1.87 0 2.8.93.93.94.93 2.72v37.02q0 1.7-.93 2.67t-2.8.97m55.41.33q-6.73 0-11.87-2.87-5.14-2.88-8.06-7.94t-2.92-11.62q0-6.64 2.76-11.71 2.75-5.06 7.61-7.94 4.86-2.87 11.26-2.87 6.24 0 10.78 2.79 4.53 2.8 6.96 7.7t2.43 11.3q0 1.38-.93 2.31t-2.47.93h-33.29v-6h33.37l-3.32 2.35q-.08-4.29-1.7-7.69t-4.62-5.35q-3-1.94-7.21-1.94-4.62 0-7.98 2.1-3.36 2.11-5.14 5.76-1.78 3.64-1.78 8.26 0 4.61 2.06 8.22 2.07 3.6 5.67 5.71 3.61 2.11 8.39 2.11 2.59 0 5.38-.98 2.8-.97 4.42-2.26 1.13-.9 2.43-.94 1.29-.04 2.27.77 1.21 1.14 1.29 2.47.08 1.34-1.13 2.31-2.76 2.19-6.85 3.61-4.09 1.41-7.81 1.41m50.05 0q-6.72 0-11.86-2.87-5.15-2.88-8.06-7.94-2.92-5.06-2.92-11.62 0-6.64 2.76-11.71 2.75-5.06 7.61-7.94 4.86-2.87 11.26-2.87 6.24 0 10.77 2.79 4.54 2.8 6.97 7.7t2.43 11.3q0 1.38-.93 2.31t-2.47.93h-33.29v-6h33.37l-3.32 2.35q-.08-4.29-1.7-7.69t-4.62-5.35q-3-1.94-7.21-1.94-4.62 0-7.98 2.1-3.36 2.11-5.14 5.76-1.78 3.64-1.78 8.26 0 4.61 2.06 8.22 2.07 3.6 5.67 5.71 3.61 2.11 8.38 2.11 2.6 0 5.39-.98 2.8-.97 4.42-2.26 1.13-.9 2.43-.94 1.29-.04 2.26.77 1.22 1.14 1.3 2.47.08 1.34-1.13 2.31-2.76 2.19-6.85 3.61-4.09 1.41-7.82 1.41m45.36 0q-5.34 0-10.12-1.66t-7.53-4.57q-1.06-1.22-.89-2.68.16-1.45 1.45-2.51 1.38-1.05 2.84-.89t2.43 1.3q1.62 1.78 4.74 3.08 3.12 1.29 6.84 1.29 5.27 0 7.82-1.74t2.63-4.33q0-2.68-2.51-4.5t-8.83-2.87q-8.18-1.54-11.91-4.78-3.72-3.24-3.72-7.86 0-4.13 2.31-6.84 2.31-2.72 6.07-4.05 3.77-1.34 7.98-1.34 5.35 0 9.4 1.74t6.48 4.82q1.05 1.22.93 2.51-.12 1.3-1.34 2.19-1.21.73-2.79.48-1.58-.24-2.64-1.37-2.02-2.11-4.49-2.96t-5.71-.85q-3.89 0-6.44 1.46t-2.55 3.97q0 1.62.85 2.83.85 1.22 3.2 2.23t6.72 1.82q6.08 1.14 9.6 3t5.06 4.37 1.54 5.67q0 3.73-2.07 6.69-2.06 2.95-5.95 4.65t-9.4 1.7m29.99.98q-2.19 0-3.73-1.54t-1.54-3.73 1.58-3.77q1.58-1.57 3.69-1.57 2.18 0 3.72 1.57 1.54 1.58 1.54 3.77 0 2.11-1.54 3.69t-3.72 1.58m35.46-.98q-6.07 0-10.85-2.91-4.78-2.92-7.53-8.02-2.76-5.1-2.76-11.5 0-6.48 2.96-11.55 2.95-5.06 8.02-8.01 5.06-2.96 11.38-2.96 6.4 0 11.42 2.96 5.02 2.95 7.98 8.06 2.95 5.1 3.04 11.5l-2.92.73q0 6.15-2.76 11.09-2.75 4.94-7.41 7.78-4.65 2.83-10.57 2.83m1.22-6.64q4.37 0 7.77-2.06 3.41-2.07 5.39-5.67 1.98-3.61 1.98-8.06 0-4.54-1.98-8.14-1.98-3.61-5.39-5.67-3.4-2.07-7.77-2.07-4.21 0-7.7 2.07-3.48 2.06-5.46 5.67-1.99 3.6-1.99 8.14 0 4.45 1.99 8.06 1.98 3.6 5.46 5.67 3.49 2.06 7.7 2.06m18.63 6.4q-1.62 0-2.67-1.05-1.06-1.05-1.06-2.67v-12.96l1.54-7.78 6 2.27v18.47q0 1.62-1.1 2.67-1.09 1.05-2.71 1.05m20.82-.08q-1.7 0-2.75-1.05-1.05-1.06-1.05-2.68v-36.85q0-1.7 1.05-2.71 1.05-1.02 2.75-1.02 1.62 0 2.68 1.02 1.05 1.01 1.05 2.71v36.85q0 1.62-1.05 2.68-1.06 1.05-2.68 1.05m-.08-52q-2.02 0-3.48-1.46t-1.46-3.56q0-2.11 1.5-3.53 1.5-1.41 3.52-1.41 1.95 0 3.45 1.41 1.5 1.42 1.5 3.53 0 2.1-1.46 3.56t-3.57 1.46"/><rect width="44.619" height="57.63" x="366.332" y="351.11" fill="none" rx="0" ry="0" transform="translate(204.01 398.69)"/><path fill="#fff9ef" d="M579.532 795.945q-1.02 0-1.71-.69t-.69-1.71v-35.03q0-1.07.69-1.74.69-.66 1.71-.66 1.07 0 1.74.66.66.67.66 1.74v15.14h24.12v-15.14q0-1.07.69-1.74.69-.66 1.71-.66 1.07 0 1.73.66.67.67.67 1.74v35.03q0 1.02-.67 1.71-.66.69-1.73.69-1.02 0-1.71-.69t-.69-1.71v-15.65h-24.12v15.65q0 1.02-.66 1.71-.67.69-1.74.69"/></g><path fill="transparent" stroke="transparent" stroke-width="1.953" d="M250 652.344h1000v195.312H250z"/></g></svg>