<svg width="66" height="66" viewBox="0 0 66 66" fill="none" xmlns="http://www.w3.org/2000/svg">
<g filter="url(#filter0_d_78_73)">
<circle cx="33" cy="29" r="29" fill="url(#paint0_linear_78_73)"/>
<path d="M27.0412 36.6975C26.8714 36.8673 26.6411 36.9627 26.401 36.9627C26.1609 36.9627 25.9306 36.8673 25.7608 36.6975C25.5911 36.5277 25.4957 36.2974 25.4957 36.0573C25.4957 35.8172 25.5911 35.5869 25.7608 35.4172L33.6562 27.5218L29.1751 23.0407C29.0486 22.914 28.9626 22.7528 28.9278 22.5772C28.8929 22.4017 28.9109 22.2198 28.9794 22.0545C29.0479 21.8892 29.1639 21.7479 29.3126 21.6484C29.4614 21.549 29.6363 21.4959 29.8152 21.4957L40.0578 21.4957C40.2977 21.4959 40.5278 21.5913 40.6974 21.7609C40.8671 21.9306 40.9624 22.1606 40.9626 22.4005L40.9626 32.6431C40.9625 32.8221 40.9093 32.997 40.8099 33.1457C40.7104 33.2945 40.5691 33.4104 40.4038 33.4789C40.2385 33.5474 40.0566 33.5654 39.8811 33.5306C39.7056 33.4958 39.5443 33.4097 39.4177 33.2833L34.9365 28.8021L27.0412 36.6975Z" fill="#FFFEFE"/>
</g>
<defs>
<filter id="filter0_d_78_73" x="0" y="0" width="66" height="66" filterUnits="userSpaceOnUse" color-interpolation-filters="sRGB">
<feFlood flood-opacity="0" result="BackgroundImageFix"/>
<feColorMatrix in="SourceAlpha" type="matrix" values="0 0 0 0 0 0 0 0 0 0 0 0 0 0 0 0 0 0 127 0" result="hardAlpha"/>
<feOffset dy="4"/>
<feGaussianBlur stdDeviation="2"/>
<feComposite in2="hardAlpha" operator="out"/>
<feColorMatrix type="matrix" values="0 0 0 0 0 0 0 0 0 0 0 0 0 0 0 0 0 0 0.25 0"/>
<feBlend mode="normal" in2="BackgroundImageFix" result="effect1_dropShadow_78_73"/>
<feBlend mode="normal" in="SourceGraphic" in2="effect1_dropShadow_78_73" result="shape"/>
</filter>
<linearGradient id="paint0_linear_78_73" x1="4" y1="29" x2="62" y2="29" gradientUnits="userSpaceOnUse">
<stop stop-color="#FB9D05"/>
<stop offset="1" stop-color="#EA4335"/>
</linearGradient>
</defs>
</svg>
